 <svg version="1.0" xmlns="http://www.w3.org/2000/svg" width="700.000000pt" height="700.000000pt" viewBox="0 0 700.000000 700.000000" preserveAspectRatio="xMidYMid meet">
<metadata>
Created by potrace 1.12, written by Peter Selinger 2001-2015
</metadata>
<g transform="translate(0.000000,700.000000) scale(0.100000,-0.100000)" fill="#000000" stroke="none">
<path d="M2137 6398 c-23 -36 -121 -208 -154 -268 -17 -30 -73 -127 -124 -215
-51 -88 -105 -182 -119 -210 -15 -27 -86 -152 -158 -278 -73 -125 -132 -229
-132 -231 0 -2 -30 -55 -66 -117 -37 -63 -108 -188 -159 -279 -51 -91 -114
-201 -140 -245 -26 -44 -69 -118 -95 -165 -26 -47 -59 -106 -74 -132 l-27 -47
139 -243 c76 -134 170 -297 209 -363 174 -298 559 -965 638 -1105 24 -41 65
-113 92 -160 51 -86 101 -173 336 -580 71 -124 163 -283 205 -355 42 -71 95
-164 119 -206 39 -69 67 -97 270 -280 125 -112 313 -288 418 -391 l192 -187
33 24 c90 66 763 707 791 754 9 14 63 107 119 206 57 99 147 254 200 345 54
91 112 192 130 224 18 32 80 140 139 240 59 100 121 206 137 236 17 30 70 123
119 205 49 83 114 195 145 250 31 55 81 141 110 190 63 107 142 243 190 329
19 34 68 118 108 186 87 148 325 556 360 619 l25 43 -23 47 c-19 39 -103 186
-224 391 -18 30 -40 69 -48 85 -8 17 -66 118 -128 225 -62 107 -133 230 -156
272 -24 42 -87 152 -140 245 -54 92 -116 202 -139 243 -23 41 -125 219 -226
395 l-185 320 -1347 3 -1346 2 -14 -22z m2675 -30 c9 -7 134 -220 278 -473
260 -455 386 -674 688 -1200 86 -148 184 -319 219 -380 34 -60 63 -114 63
-118 0 -5 -67 -124 -149 -265 -210 -362 -749 -1294 -866 -1497 -54 -93 -130
-224 -170 -290 -39 -66 -190 -323 -334 -572 l-263 -452 -201 -194 c-276 -266
-548 -517 -560 -517 -5 0 -84 71 -175 159 -92 87 -273 256 -403 375 l-236 216
-334 578 c-623 1080 -691 1197 -728 1257 -36 57 -195 331 -543 935 -93 161
-156 281 -152 290 5 15 225 403 319 565 29 50 236 412 460 805 224 393 418
732 431 753 l24 37 1308 0 c1032 0 1312 -3 1324 -12z"></path>
</g>
</svg>